<svg xmlns="http://www.w3.org/2000/svg" width="21.503" height="21.135" viewBox="42.245 883.425 21.503 21.135"><g data-name="home"><path d="M53 900.75c-.41 0-.75-.34-.75-.75v-3c0-.41.34-.75.75-.75s.75.34.75.75v3c0 .41-.34.75-.75.75Z" fill-rule="evenodd" data-name="Vector"/><path d="M58.6 904.56H47.4c-1.82 0-3.48-1.4-3.78-3.19l-1.33-7.97c-.22-1.24.39-2.83 1.38-3.62l6.93-5.55c1.34-1.08 3.45-1.07 4.8.01l6.93 5.54c.98.79 1.58 2.38 1.38 3.62l-1.33 7.96c-.3 1.77-2 3.2-3.78 3.2Zm-5.61-19.63c-.53 0-1.06.16-1.45.47l-6.93 5.56c-.56.45-.96 1.49-.84 2.2l1.33 7.96c.18 1.05 1.23 1.94 2.3 1.94h11.2c1.07 0 2.12-.89 2.3-1.95l1.33-7.96c.11-.7-.29-1.76-.84-2.2l-6.93-5.54c-.4-.32-.94-.48-1.47-.48Z" fill-rule="evenodd" data-name="Vector"/></g></svg>