<svg xmlns="http://www.w3.org/2000/svg" width="19.694" height="21.641" viewBox="363.282 883.308 19.694 21.641"><g data-name="setting"><path d="M363.282 890.967v6.313c0 2.32 0 2.32 2.188 3.797l6.018 3.479c.908.525 2.385.525 3.282 0l6.018-3.48c2.188-1.476 2.188-1.476 2.188-3.785v-6.324c0-2.308 0-2.308-2.188-3.785l-6.018-3.48c-.897-.525-2.374-.525-3.282 0l-6.018 3.48c-2.188 1.477-2.188 1.477-2.188 3.785Z" stroke-linejoin="round" stroke-linecap="round" stroke-width="1.5" stroke="#000" fill="transparent" data-name="Vector"/><path d="M376.411 894.13a3.282 3.282 0 1 1-6.564 0 3.282 3.282 0 0 1 6.564 0Z" stroke-linejoin="round" stroke-linecap="round" stroke-width="1.5" stroke="#000" fill="transparent" data-name="Vector"/></g></svg>