<svg xmlns="http://www.w3.org/2000/svg" width="18.68" height="21.5" viewBox="123.66 883.25 18.68 21.5"><g data-name="user"><path d="M133 894.75c-3.17 0-5.75-2.58-5.75-5.75s2.58-5.75 5.75-5.75 5.75 2.58 5.75 5.75-2.58 5.75-5.75 5.75Zm0-10a4.26 4.26 0 0 0-4.25 4.25 4.26 4.26 0 0 0 4.25 4.25 4.26 4.26 0 0 0 4.25-4.25 4.26 4.26 0 0 0-4.25-4.25ZM141.59 904.75c-.41 0-.75-.34-.75-.75 0-3.45-3.52-6.25-7.84-6.25s-7.84 2.8-7.84 6.25c0 .41-.34.75-.75.75s-.75-.34-.75-.75c0-4.27 4.19-7.75 9.34-7.75 5.15 0 9.34 3.48 9.34 7.75 0 .41-.34.75-.75.75Z" fill-rule="evenodd" data-name="Vector"/></g></svg>